<svg width="154" height="154" viewBox="0 0 154 154" fill="none" xmlns="http://www.w3.org/2000/svg">
<g id="Group 1522">
<path id="Ellipse 347" d="M146.5 77.25C146.5 68.156 144.709 59.151 141.229 50.7492C137.749 42.3474 132.648 34.7133 126.217 28.2829C119.787 21.8524 112.153 16.7515 103.751 13.2713C95.349 9.7912 86.344 8 77.25 8" stroke="#9F43CC" stroke-width="15"/>
<path id="Ellipse 348" d="M28.2829 126.217C37.9676 135.902 50.3068 142.497 63.74 145.169C77.1732 147.841 91.097 146.47 103.751 141.229C116.405 135.987 127.22 127.111 134.829 115.723C142.439 104.335 146.5 90.9464 146.5 77.25" stroke="#EBA10F" stroke-width="15"/>
<path id="Ellipse 351" d="M28.2829 126.217C37.9676 135.902 50.3068 142.497 63.74 145.169C77.1732 147.841 91.097 146.47 103.751 141.229C116.405 135.987 127.22 127.111 134.829 115.723C142.439 104.335 146.5 90.9464 146.5 77.25" stroke="#EBA10F" stroke-width="15"/>
<path id="Ellipse 352" d="M28.283 126.217C37.9677 135.902 50.3069 142.497 63.7401 145.169C77.1733 147.841 91.0971 146.47 103.751 141.229C116.405 135.987 127.22 127.111 134.829 115.723C142.439 104.335 146.5 90.9464 146.5 77.25" stroke="#EBA10F" stroke-width="15"/>
<path id="Ellipse 349" d="M12.4623 52.7936C7.72928 65.3319 6.73618 78.9742 9.60344 92.0657C12.4707 105.157 19.0751 117.136 28.6156 126.548" stroke="#2B87E3" stroke-width="15"/>
<path id="Ellipse 350" d="M77.25 8C62.9293 8 48.9609 12.4397 37.2682 20.7079C25.5754 28.976 16.7336 40.6658 11.9602 54.1675" stroke="#0CA85D" stroke-width="15"/>
</g>
</svg>
