<svg width="115" height="115" viewBox="0 0 115 115" fill="none" xmlns="http://www.w3.org/2000/svg">
<g id="gg:check-o">
<g id="Group">
<path id="Vector" d="M49.0809 78.1688L28.7498 57.833L35.5252 51.0576L49.0809 64.6084L76.1825 37.502L82.9627 44.2822L49.0809 78.1592V78.1688Z" fill="#5C2682"/>
<path id="Vector_2" fill-rule="evenodd" clip-rule="evenodd" d="M4.7915 57.5033C4.7915 28.3939 28.3905 4.79492 57.4998 4.79492C86.6092 4.79492 110.208 28.3939 110.208 57.5033C110.208 86.6126 86.6092 110.212 57.4998 110.212C28.3905 110.212 4.7915 86.6126 4.7915 57.5033ZM57.4998 100.628C51.8366 100.628 46.2288 99.5128 40.9966 97.3456C35.7644 95.1783 31.0104 92.0018 27.0059 87.9972C23.0013 83.9927 19.8248 79.2386 17.6575 74.0065C15.4903 68.7743 14.3748 63.1665 14.3748 57.5033C14.3748 51.84 15.4903 46.2322 17.6575 41C19.8248 35.7679 23.0013 31.0138 27.0059 27.0093C31.0104 23.0047 35.7644 19.8282 40.9966 17.6609C46.2288 15.4937 51.8366 14.3783 57.4998 14.3783C68.9373 14.3783 79.9063 18.9218 87.9938 27.0093C96.0813 35.0968 100.625 46.0658 100.625 57.5033C100.625 68.9407 96.0813 79.9097 87.9938 87.9972C79.9063 96.0847 68.9373 100.628 57.4998 100.628Z" fill="#5C2682"/>
</g>
</g>
</svg>
