<svg width="27" height="26" viewBox="0 0 27 26" fill="none" xmlns="http://www.w3.org/2000/svg">
<g id="Group">
<path id="Vector" d="M22.7308 13.9217V10.2289C22.7308 9.73922 22.5363 9.26958 22.19 8.92332C21.8438 8.57705 21.3742 8.38252 20.8846 8.38252H3.34615C2.85652 8.38252 2.38695 8.57705 2.04073 8.92332C1.6945 9.26958 1.5 9.73922 1.5 10.2289V23.1536C1.5 23.6433 1.6945 24.1129 2.04073 24.4592C2.38695 24.8055 2.85652 25 3.34615 25H20.8846C21.3742 25 21.8438 24.8055 22.19 24.4592C22.5363 24.1129 22.7308 23.6433 22.7308 23.1536V18.5376M7.66615 3.76656L18.1338 1.03391C18.2515 1.00076 18.3746 0.991793 18.4958 1.00755C18.617 1.0233 18.7337 1.06345 18.8389 1.12557C18.9442 1.18769 19.0358 1.27049 19.1081 1.36898C19.1805 1.46747 19.2322 1.5796 19.26 1.6986L19.7769 3.76656" stroke="#5C2682" stroke-opacity="0.66" stroke-width="2" stroke-linecap="round" stroke-linejoin="round"/>
<path id="Vector_2" d="M24.577 13.9219H19.9617C19.4518 13.9219 19.0386 14.3352 19.0386 14.8451V17.6146C19.0386 18.1245 19.4518 18.5378 19.9617 18.5378H24.577C25.0868 18.5378 25.5001 18.1245 25.5001 17.6146V14.8451C25.5001 14.3352 25.0868 13.9219 24.577 13.9219Z" stroke="#5C2682" stroke-opacity="0.66" stroke-width="2" stroke-linecap="round" stroke-linejoin="round"/>
</g>
</svg>
